<svg width="109" height="26" viewBox="0 0 109 26" fill="none" xmlns="http://www.w3.org/2000/svg">
<path d="M25.3154 3.45918V25H20.0683V12.0816L15.2507 25H11.0162L6.168 12.051V25H0.920876V3.45918H7.11923L13.1642 18.3721L19.1477 3.45918H25.3154ZM28.0454 16.4082C28.0454 14.6489 28.3727 13.1045 29.0273 11.7748C29.7024 10.4451 30.6127 9.42228 31.7583 8.7063C32.9038 7.99032 34.1824 7.63233 35.5939 7.63233C36.8008 7.63233 37.8543 7.87781 38.7544 8.36877C39.675 8.85973 40.3807 9.50411 40.8717 10.3019V7.87781H46.1188V25H40.8717V22.5759C40.3603 23.3737 39.6443 24.0181 38.7238 24.509C37.8237 25 36.7701 25.2455 35.5632 25.2455C34.1722 25.2455 32.9038 24.8875 31.7583 24.1715C30.6127 23.4351 29.7024 22.402 29.0273 21.0723C28.3727 19.7222 28.0454 18.1675 28.0454 16.4082ZM40.8717 16.4389C40.8717 15.1297 40.5035 14.0966 39.767 13.3397C39.0511 12.5828 38.1714 12.2044 37.1281 12.2044C36.0848 12.2044 35.195 12.5828 34.4585 13.3397C33.7426 14.0762 33.3846 15.099 33.3846 16.4082C33.3846 17.7174 33.7426 18.7607 34.4585 19.5381C35.195 20.295 36.0848 20.6734 37.1281 20.6734C38.1714 20.6734 39.0511 20.295 39.767 19.5381C40.5035 18.7812 40.8717 17.7481 40.8717 16.4389ZM55.162 10.7315C55.7757 9.7905 56.5428 9.05406 57.4634 8.52219C58.3839 7.96986 59.4068 7.6937 60.5319 7.6937V13.2477H59.0897C57.7805 13.2477 56.7985 13.5341 56.1439 14.1068C55.4893 14.6592 55.162 15.6411 55.162 17.0526V25H49.9149V7.87781H55.162V10.7315ZM73.5034 25L68.287 17.8197V25H63.0399V2.29315H68.287V14.8433L73.4728 7.87781H79.9473L72.8284 16.4696L80.0086 25H73.5034ZM80.9649 16.4082C80.9649 14.6489 81.2922 13.1045 81.9468 11.7748C82.6219 10.4451 83.5322 9.42228 84.6778 8.7063C85.8234 7.99032 87.1019 7.63233 88.5134 7.63233C89.7203 7.63233 90.7739 7.87781 91.674 8.36877C92.5945 8.85973 93.3003 9.50411 93.7912 10.3019V7.87781H99.0383V25H93.7912V22.5759C93.2798 23.3737 92.5638 24.0181 91.6433 24.509C90.7432 25 89.6897 25.2455 88.4827 25.2455C87.0917 25.2455 85.8234 24.8875 84.6778 24.1715C83.5322 23.4351 82.6219 22.402 81.9468 21.0723C81.2922 19.7222 80.9649 18.1675 80.9649 16.4082ZM93.7912 16.4389C93.7912 15.1297 93.423 14.0966 92.6866 13.3397C91.9706 12.5828 91.0909 12.2044 90.0477 12.2044C89.0044 12.2044 88.1145 12.5828 87.3781 13.3397C86.6621 14.0762 86.3041 15.099 86.3041 16.4082C86.3041 17.7174 86.6621 18.7607 87.3781 19.5381C88.1145 20.295 89.0044 20.6734 90.0477 20.6734C91.0909 20.6734 91.9706 20.295 92.6866 19.5381C93.423 18.7812 93.7912 17.7481 93.7912 16.4389ZM105.473 6.09808C104.553 6.09808 103.796 5.83215 103.203 5.30027C102.63 4.74794 102.343 4.07288 102.343 3.27507C102.343 2.4568 102.63 1.78173 103.203 1.24986C103.796 0.697533 104.553 0.421369 105.473 0.421369C106.373 0.421369 107.11 0.697533 107.683 1.24986C108.276 1.78173 108.572 2.4568 108.572 3.27507C108.572 4.07288 108.276 4.74794 107.683 5.30027C107.11 5.83215 106.373 6.09808 105.473 6.09808ZM108.082 7.87781V25H102.834V7.87781H108.082Z" fill="white"/>
</svg>
