<svg width="296" height="69" viewBox="0 0 296 69" fill="none" xmlns="http://www.w3.org/2000/svg">
<path d="M67.071 8.56293V67.5576H52.7005V32.1776L39.5065 67.5576H27.9093L14.6313 32.0936V67.5576H0.260772V8.56293H17.2364L33.7919 49.4054L50.1794 8.56293H67.071ZM74.5477 44.027C74.5477 39.2088 75.4441 34.9789 77.237 31.3372C79.0858 27.6956 81.5789 24.8943 84.7163 22.9334C87.8538 20.9725 91.3553 19.9921 95.2211 19.9921C98.5266 19.9921 101.412 20.6644 103.877 22.009C106.398 23.3536 108.331 25.1184 109.676 27.3034V20.6644H124.046V67.5576H109.676V60.9186C108.275 63.1036 106.314 64.8684 103.793 66.213C101.328 67.5576 98.4426 68.2299 95.1371 68.2299C91.3273 68.2299 87.8538 67.2495 84.7163 65.2886C81.5789 63.2717 79.0858 60.4424 77.237 56.8008C75.4441 53.1031 74.5477 48.8452 74.5477 44.027ZM109.676 44.111C109.676 40.5254 108.667 37.6961 106.65 35.6232C104.689 33.5502 102.28 32.5138 99.423 32.5138C96.5657 32.5138 94.1286 33.5502 92.1117 35.6232C90.1508 37.6401 89.1704 40.4414 89.1704 44.027C89.1704 47.6126 90.1508 50.4699 92.1117 52.5989C94.1286 54.6718 96.5657 55.7083 99.423 55.7083C102.28 55.7083 104.689 54.6718 106.65 52.5989C108.667 50.5259 109.676 47.6966 109.676 44.111ZM148.813 28.4799C150.494 25.9028 152.595 23.8859 155.116 22.4292C157.637 20.9165 160.438 20.1602 163.52 20.1602V35.3711H159.57C155.984 35.3711 153.295 36.1554 151.502 37.7241C149.709 39.2368 148.813 41.926 148.813 45.7918V67.5576H134.443V20.6644H148.813V28.4799ZM199.045 67.5576L184.759 47.8927V67.5576H170.389V5.36949H184.759V39.741L198.961 20.6644H216.693L197.197 44.195L216.862 67.5576H199.045ZM219.48 44.027C219.48 39.2088 220.377 34.9789 222.17 31.3372C224.019 27.6956 226.512 24.8943 229.649 22.9334C232.786 20.9725 236.288 19.9921 240.154 19.9921C243.459 19.9921 246.345 20.6644 248.81 22.009C251.331 23.3536 253.264 25.1184 254.608 27.3034V20.6644H268.979V67.5576H254.608V60.9186C253.208 63.1036 251.247 64.8684 248.726 66.213C246.261 67.5576 243.375 68.2299 240.07 68.2299C236.26 68.2299 232.786 67.2495 229.649 65.2886C226.512 63.2717 224.019 60.4424 222.17 56.8008C220.377 53.1031 219.48 48.8452 219.48 44.027ZM254.608 44.111C254.608 40.5254 253.6 37.6961 251.583 35.6232C249.622 33.5502 247.213 32.5138 244.356 32.5138C241.498 32.5138 239.061 33.5502 237.044 35.6232C235.084 37.6401 234.103 40.4414 234.103 44.027C234.103 47.6126 235.084 50.4699 237.044 52.5989C239.061 54.6718 241.498 55.7083 244.356 55.7083C247.213 55.7083 249.622 54.6718 251.583 52.5989C253.6 50.5259 254.608 47.6966 254.608 44.111ZM286.603 15.7902C284.081 15.7902 282.008 15.0619 280.384 13.6052C278.815 12.0925 278.031 10.2437 278.031 8.05871C278.031 5.81769 278.815 3.96885 280.384 2.51219C282.008 0.999509 284.081 0.243167 286.603 0.243167C289.068 0.243167 291.085 0.999509 292.653 2.51219C294.278 3.96885 295.09 5.81769 295.09 8.05871C295.09 10.2437 294.278 12.0925 292.653 13.6052C291.085 15.0619 289.068 15.7902 286.603 15.7902ZM293.746 20.6644V67.5576H279.375V20.6644H293.746Z" fill="url(#paint0_linear_2_3990)"/>
<defs>
<linearGradient id="paint0_linear_2_3990" x1="-5" y1="101.558" x2="299" y2="101.558" gradientUnits="userSpaceOnUse">
<stop stop-color="#00F0FF"/>
<stop offset="0.46875" stop-color="#5773FF"/>
<stop offset="1" stop-color="#FF007A"/>
</linearGradient>
</defs>
</svg>
