<svg width="571" height="552" viewBox="0 0 571 552" fill="none" xmlns="http://www.w3.org/2000/svg">
<path d="M497.936 314.594L482.872 320.691L534.753 448.872L549.817 442.775L497.936 314.594Z" fill="#F264E0"/>
<path d="M212.491 305.21C240.231 305.21 262.719 282.722 262.719 254.982C262.719 227.241 240.231 204.753 212.491 204.753C184.751 204.753 162.263 227.241 162.263 254.982C162.263 282.722 184.751 305.21 212.491 305.21Z" fill="url(#paint0_radial_2_17)"/>
<path d="M472.496 329.438C472.496 427.235 414.29 506.418 342.494 506.418C270.697 506.418 212.491 427.235 212.491 329.438C212.491 231.641 270.697 202.39 342.494 202.39C414.29 202.39 472.496 231.641 472.496 329.438Z" fill="url(#paint1_radial_2_17)"/>
<path d="M472.496 329.438C472.496 427.235 414.29 506.418 342.494 506.418C270.697 506.418 212.491 427.235 212.491 329.438C212.491 231.641 270.697 202.39 342.494 202.39C414.29 202.39 472.496 231.641 472.496 329.438Z" fill="url(#paint2_linear_2_17)"/>
<path d="M342.493 306.096C391.447 306.096 431.131 283.212 431.131 254.982C431.131 226.752 391.447 203.867 342.493 203.867C293.54 203.867 253.856 226.752 253.856 254.982C253.856 283.212 293.54 306.096 342.493 306.096Z" fill="#393091"/>
<path d="M279.561 232.231C314.129 212.14 370.562 212.14 405.131 232.231C419.313 240.504 427.881 250.845 430.245 261.777C433.791 246.413 425.518 230.458 405.131 218.64C370.562 198.548 314.129 198.548 279.561 218.64C259.174 230.458 250.901 246.413 254.446 261.777C256.81 251.14 265.378 240.504 279.561 232.231Z" fill="#453C9E"/>
<path d="M239.969 133.252L255.924 105.479C265.378 95.729 273.06 82.7288 276.606 69.7286L292.856 41.6599L269.515 28.3642C268.628 27.7733 268.038 27.4778 267.151 26.8869C260.651 23.6369 251.787 24.5232 242.037 30.137C221.355 41.9554 204.514 71.2059 204.514 94.8427C204.514 106.661 208.65 115.229 215.446 119.07L239.969 133.252Z" fill="url(#paint3_radial_2_17)"/>
<path d="M292.543 102.403C307.147 77.1079 307.187 49.7898 292.632 41.3861C278.077 32.9825 254.439 46.6755 239.834 71.9704C225.23 97.2652 225.19 124.583 239.745 132.987C254.3 141.391 277.939 127.698 292.543 102.403Z" fill="#BCBEFF"/>
<path d="M347.516 265.323C420.783 265.323 480.178 205.928 480.178 132.661C480.178 59.3945 420.783 0 347.516 0C274.249 0 214.855 59.3945 214.855 132.661C214.855 205.928 274.249 265.323 347.516 265.323Z" fill="url(#paint4_radial_2_17)"/>
<path d="M347.516 265.323C420.783 265.323 480.178 205.928 480.178 132.661C480.178 59.3945 420.783 0 347.516 0C274.249 0 214.855 59.3945 214.855 132.661C214.855 205.928 274.249 265.323 347.516 265.323Z" fill="url(#paint5_linear_2_17)"/>
<path d="M421.677 222.481L437.632 194.708C447.086 184.958 454.768 171.957 458.314 158.957L474.564 130.888L451.223 117.593C450.336 117.002 449.745 116.706 448.859 116.115C442.063 112.865 433.495 113.752 423.745 119.365C403.063 131.184 386.222 160.434 386.222 184.071C386.222 195.89 390.358 204.458 397.154 208.299L421.677 222.481Z" fill="url(#paint6_radial_2_17)"/>
<path d="M474.368 191.717C488.972 166.422 489.012 139.104 474.457 130.7C459.902 122.297 436.264 135.99 421.659 161.285C407.055 186.579 407.015 213.897 421.57 222.301C436.125 230.705 459.763 217.012 474.368 191.717Z" fill="#BCBEFF"/>
<path d="M412.518 198.253C412.518 174.321 429.359 145.366 450.041 133.548C457.132 129.411 463.928 127.934 469.541 128.525C463.632 127.047 456.246 128.525 448.268 133.252C427.586 145.071 410.745 174.321 410.745 197.958C410.745 213.617 417.836 223.072 428.768 224.549C418.722 222.481 412.518 213.026 412.518 198.253Z" fill="white"/>
<path d="M466.946 187.432C477.39 169.344 477.379 149.786 466.922 143.749C456.465 137.711 439.521 147.48 429.078 165.568C418.635 183.656 418.646 203.214 429.103 209.251C439.56 215.289 456.503 205.52 466.946 187.432Z" fill="#393091"/>
<path d="M463.337 142.116C465.996 145.367 467.769 150.389 467.769 156.594C467.769 173.731 455.655 194.413 440.882 202.981C435.268 206.231 429.95 207.118 425.518 206.231C430.245 211.845 438.518 212.731 447.973 207.413C462.746 198.845 474.86 178.163 474.86 161.026C474.86 150.389 470.428 143.889 463.337 142.116Z" fill="#453C9E"/>
<path d="M290.739 220.369C307.913 213.22 311.82 183.367 299.467 153.689C287.113 124.012 263.176 105.749 246.003 112.898C228.829 120.047 224.922 149.9 237.276 179.578C249.629 209.255 273.566 227.518 290.739 220.369Z" fill="#393091"/>
<path d="M289.015 172.844C287.833 182.298 280.742 185.253 273.061 179.639C265.379 173.73 260.356 161.321 261.538 151.866C262.719 142.411 269.81 139.457 277.492 145.07C284.879 150.98 290.197 163.389 289.015 172.844Z" fill="#F264E0"/>
<path d="M272.174 210.072C251.197 194.117 237.015 160.139 240.56 133.843C242.038 123.207 246.174 115.525 251.788 111.388C240.856 112.275 232.583 121.73 230.515 137.684C227.265 163.685 241.447 197.958 262.129 213.913C274.538 223.368 286.356 224.254 294.925 218.049C288.129 218.64 280.152 215.981 272.174 210.072Z" fill="#453C9E"/>
<path d="M263.902 213.025C242.924 197.07 228.742 163.092 232.287 136.797C233.765 124.683 238.788 116.41 245.879 112.569C237.901 115.819 231.992 124.387 230.515 137.387C227.265 163.388 241.447 197.661 262.129 213.616C273.356 222.184 284.288 223.662 292.266 219.525C284.584 222.775 274.538 221.003 263.902 213.025Z" fill="#F264E0"/>
<path d="M490.519 367.847C518.259 367.847 540.747 345.36 540.747 317.619C540.747 289.879 518.259 267.391 490.519 267.391C462.779 267.391 440.291 289.879 440.291 317.619C440.291 345.36 462.779 367.847 490.519 367.847Z" fill="url(#paint7_radial_2_17)"/>
<path d="M490.519 367.847C518.259 367.847 540.747 345.36 540.747 317.619C540.747 289.879 518.259 267.391 490.519 267.391C462.779 267.391 440.291 289.879 440.291 317.619C440.291 345.36 462.779 367.847 490.519 367.847Z" fill="url(#paint8_linear_2_17)"/>
<path d="M570.589 484.554C567.635 508.487 546.657 553.692 527.452 551.624C508.247 549.26 498.497 500.214 501.156 476.282C504.111 452.349 521.838 434.917 541.043 436.985C560.248 439.349 573.544 460.622 570.589 484.554Z" fill="url(#paint9_radial_2_17)"/>
<path d="M570.589 484.554C567.635 508.487 546.657 553.692 527.452 551.624C508.247 549.26 498.497 500.214 501.156 476.282C504.111 452.349 521.838 434.917 541.043 436.985C560.248 439.349 573.544 460.622 570.589 484.554Z" fill="url(#paint10_linear_2_17)"/>
<path d="M78.944 330.62C75.9894 330.62 73.3303 329.142 71.853 326.188C69.7848 322.347 71.2621 317.324 75.3985 315.256L179.4 260.891C183.241 258.823 188.264 260.3 190.332 264.437C192.401 268.278 190.923 273.301 186.787 275.369L82.785 329.733C81.6032 330.324 80.4213 330.62 78.944 330.62Z" fill="#F264E0"/>
<path d="M81.0121 360.757C59.739 372.28 10.6927 381.439 1.53342 364.598C-7.62583 347.757 26.352 311.119 47.6251 299.597C68.8982 288.074 93.4214 292.21 102.581 309.347C111.74 326.188 101.99 349.234 81.0121 360.757Z" fill="url(#paint11_radial_2_17)"/>
<path d="M81.0121 360.757C59.739 372.28 10.6927 381.439 1.53342 364.598C-7.62583 347.757 26.352 311.119 47.6251 299.597C68.8982 288.074 93.4214 292.21 102.581 309.347C111.74 326.188 101.99 349.234 81.0121 360.757Z" fill="url(#paint12_linear_2_17)"/>
<defs>
<radialGradient id="paint0_radial_2_17" cx="0" cy="0" r="1" gradientUnits="userSpaceOnUse" gradientTransform="translate(453.282 94.0275) rotate(11.1976) scale(290.77)">
<stop stop-color="#C0BFF6"/>
<stop offset="1" stop-color="#393091"/>
</radialGradient>
<radialGradient id="paint1_radial_2_17" cx="0" cy="0" r="1" gradientUnits="userSpaceOnUse" gradientTransform="translate(419.146 302.938) scale(223.506 304.251)">
<stop stop-color="#C0BFF6"/>
<stop offset="1" stop-color="#393091"/>
</radialGradient>
<linearGradient id="paint2_linear_2_17" x1="342.41" y1="506.514" x2="342.41" y2="202.389" gradientUnits="userSpaceOnUse">
<stop stop-color="#F264E0"/>
<stop offset="0.00713563" stop-color="#EF63DF"/>
<stop offset="0.1379" stop-color="#BF56CA"/>
<stop offset="0.2725" stop-color="#964AB9"/>
<stop offset="0.4089" stop-color="#7441AA"/>
<stop offset="0.5478" stop-color="#5A399F"/>
<stop offset="0.6901" stop-color="#483497"/>
<stop offset="0.8379" stop-color="#3D3193"/>
<stop offset="1" stop-color="#393091"/>
</linearGradient>
<radialGradient id="paint3_radial_2_17" cx="0" cy="0" r="1" gradientUnits="userSpaceOnUse" gradientTransform="translate(211.461 -73.2509) scale(157.395)">
<stop stop-color="#C0BFF6"/>
<stop offset="1" stop-color="#393091"/>
</radialGradient>
<radialGradient id="paint4_radial_2_17" cx="0" cy="0" r="1" gradientUnits="userSpaceOnUse" gradientTransform="translate(430.348 112.992) scale(224.192)">
<stop stop-color="#C0BFF6"/>
<stop offset="1" stop-color="#393091"/>
</radialGradient>
<linearGradient id="paint5_linear_2_17" x1="329.106" y1="264.012" x2="366.031" y2="1.27462" gradientUnits="userSpaceOnUse">
<stop stop-color="#F264E0"/>
<stop offset="0.00713563" stop-color="#EF63DF"/>
<stop offset="0.1379" stop-color="#BF56CA"/>
<stop offset="0.2725" stop-color="#964AB9"/>
<stop offset="0.4089" stop-color="#7441AA"/>
<stop offset="0.5478" stop-color="#5A399F"/>
<stop offset="0.6901" stop-color="#483497"/>
<stop offset="0.8379" stop-color="#3D3193"/>
<stop offset="1" stop-color="#393091"/>
</linearGradient>
<radialGradient id="paint6_radial_2_17" cx="0" cy="0" r="1" gradientUnits="userSpaceOnUse" gradientTransform="translate(428.553 110.607) scale(106.47)">
<stop stop-color="#C0BFF6"/>
<stop offset="1" stop-color="#393091"/>
</radialGradient>
<radialGradient id="paint7_radial_2_17" cx="0" cy="0" r="1" gradientUnits="userSpaceOnUse" gradientTransform="translate(520.236 284.882) rotate(11.1976) scale(105.091)">
<stop stop-color="#C0BFF6"/>
<stop offset="1" stop-color="#393091"/>
</radialGradient>
<linearGradient id="paint8_linear_2_17" x1="449.639" y1="347.365" x2="531.14" y2="288.147" gradientUnits="userSpaceOnUse">
<stop stop-color="#F264E0"/>
<stop offset="0.00713563" stop-color="#EF63DF"/>
<stop offset="0.1379" stop-color="#BF56CA"/>
<stop offset="0.2725" stop-color="#964AB9"/>
<stop offset="0.4089" stop-color="#7441AA"/>
<stop offset="0.5478" stop-color="#5A399F"/>
<stop offset="0.6901" stop-color="#483497"/>
<stop offset="0.8379" stop-color="#3D3193"/>
<stop offset="1" stop-color="#393091"/>
</linearGradient>
<radialGradient id="paint9_radial_2_17" cx="0" cy="0" r="1" gradientUnits="userSpaceOnUse" gradientTransform="translate(583.808 444.864) rotate(6.80285) scale(89.3393 147.167)">
<stop stop-color="#C0BFF6"/>
<stop offset="1" stop-color="#393091"/>
</radialGradient>
<linearGradient id="paint10_linear_2_17" x1="499.787" y1="490.275" x2="569.07" y2="498.541" gradientUnits="userSpaceOnUse">
<stop stop-color="#F264E0"/>
<stop offset="0.00713563" stop-color="#EF63DF"/>
<stop offset="0.1379" stop-color="#BF56CA"/>
<stop offset="0.2725" stop-color="#964AB9"/>
<stop offset="0.4089" stop-color="#7441AA"/>
<stop offset="0.5478" stop-color="#5A399F"/>
<stop offset="0.6901" stop-color="#483497"/>
<stop offset="0.8379" stop-color="#3D3193"/>
<stop offset="1" stop-color="#393091"/>
</linearGradient>
<radialGradient id="paint11_radial_2_17" cx="0" cy="0" r="1" gradientUnits="userSpaceOnUse" gradientTransform="translate(143.101 301.055) rotate(61.2704) scale(89.3398 147.17)">
<stop stop-color="#C0BFF6"/>
<stop offset="1" stop-color="#393091"/>
</radialGradient>
<linearGradient id="paint12_linear_2_17" x1="101.65" y1="335.577" x2="24.5626" y2="315.785" gradientUnits="userSpaceOnUse">
<stop stop-color="#F264E0"/>
<stop offset="0.00713563" stop-color="#EF63DF"/>
<stop offset="0.1379" stop-color="#BF56CA"/>
<stop offset="0.2725" stop-color="#964AB9"/>
<stop offset="0.4089" stop-color="#7441AA"/>
<stop offset="0.5478" stop-color="#5A399F"/>
<stop offset="0.6901" stop-color="#483497"/>
<stop offset="0.8379" stop-color="#3D3193"/>
<stop offset="1" stop-color="#393091"/>
</linearGradient>
</defs>
</svg>
