<svg width="99" height="100" viewBox="0 0 99 100" fill="none" xmlns="http://www.w3.org/2000/svg">
<path d="M84.8572 0.692383H99V14.8352H84.8572V0.692383ZM84.8572 21.9067H99V36.0495H84.8572V21.9067ZM63.6429 0.692383H77.7857V14.8352H63.6429V0.692383ZM63.6429 21.9067H77.7857V36.0495H63.6429V21.9067Z" fill="white"/>
<path d="M91.9286 50.1925V71.4068H7.07143V14.8353H49.5V7.76392H7.07143C5.19597 7.76392 3.39732 8.50894 2.07117 9.83509C0.745023 11.1612 0 12.9599 0 14.8353V71.4068C0 73.2822 0.745023 75.0809 2.07117 76.407C3.39732 77.7332 5.19597 78.4782 7.07143 78.4782H35.3571V92.6211H21.2143V99.6925H77.7857V92.6211H63.6429V78.4782H91.9286C93.804 78.4782 95.6027 77.7332 96.9288 76.407C98.255 75.0809 99 73.2822 99 71.4068V50.1925H91.9286ZM56.5714 92.6211H42.4286V78.4782H56.5714V92.6211Z" fill="white"/>
</svg>
